<svg width="48" height="48" viewBox="0 0 48 48" fill="none" xmlns="http://www.w3.org/2000/svg">
<circle cx="24" cy="24" r="24" fill="#F6821F" fill-opacity="0.16"/>
<circle cx="24.0001" cy="24.0001" r="21.4737" fill="#EAECEF"/>
<path d="M19.4717 19.3393C21.0976 18.8304 22.7928 18.5773 24.4965 18.5893C26.2002 18.5773 27.8954 18.8303 29.5213 19.3392" fill="#F6821F"/>
<path d="M29.5212 28.3391C27.8953 28.848 26.2001 29.101 24.4964 29.0891C22.7928 29.101 21.0976 28.848 19.4717 28.3391" fill="#F6821F"/>
<path d="M27.0313 28.9098L28.1586 31.1646C28.2337 31.316 28.358 31.4375 28.5111 31.5092C28.6642 31.5809 28.8371 31.5985 29.0015 31.5592C31.302 30.9968 33.2853 30.0161 34.7297 28.7607C34.84 28.6658 34.9205 28.5411 34.9617 28.4016C35.0028 28.2621 35.0027 28.1136 34.9614 27.9741L31.7764 17.3573C31.7442 17.2502 31.6886 17.1517 31.6136 17.0688C31.5386 16.986 31.446 16.9209 31.3426 16.8783C30.4428 16.5099 29.5122 16.2218 28.5616 16.0174C28.3805 15.9777 28.1911 16.0064 28.0298 16.0979C27.8686 16.1893 27.7468 16.3372 27.6879 16.513L26.9404 18.7555" fill="#F6821F"/>
<path d="M21.9612 28.9098L20.8338 31.1646C20.7587 31.316 20.6344 31.4375 20.4813 31.5092C20.3282 31.5809 20.1553 31.5985 19.9909 31.5592C17.6904 30.9968 15.7072 30.0162 14.2627 28.7607C14.1524 28.6658 14.0719 28.5412 14.0308 28.4016C13.9897 28.2621 13.9897 28.1136 14.031 27.9741L17.216 17.3573C17.2482 17.2502 17.3038 17.1517 17.3788 17.0688C17.4539 16.986 17.5464 16.9209 17.6498 16.8783C18.5496 16.5099 19.4802 16.2218 20.4308 16.0174C20.6119 15.9777 20.8013 16.0064 20.9626 16.0979C21.1239 16.1893 21.2456 16.3372 21.3045 16.513L22.052 18.7555" fill="#F6821F"/>
<path d="M19.4717 19.3393C21.0976 18.8304 22.7928 18.5773 24.4965 18.5893C26.2002 18.5773 27.8954 18.8303 29.5213 19.3392M29.5212 28.3391C27.8953 28.848 26.2001 29.101 24.4964 29.0891C22.7928 29.101 21.0976 28.848 19.4717 28.3391M27.0313 28.9098L28.1586 31.1646C28.2337 31.316 28.358 31.4375 28.5111 31.5092C28.6642 31.5809 28.8371 31.5985 29.0015 31.5592C31.302 30.9968 33.2853 30.0161 34.7297 28.7607C34.84 28.6658 34.9205 28.5411 34.9617 28.4016C35.0028 28.2621 35.0027 28.1136 34.9614 27.9741L31.7764 17.3573C31.7442 17.2502 31.6886 17.1517 31.6136 17.0688C31.5386 16.986 31.446 16.9209 31.3426 16.8783C30.4428 16.5099 29.5122 16.2218 28.5616 16.0174C28.3805 15.9777 28.1911 16.0064 28.0298 16.0979C27.8686 16.1893 27.7468 16.3372 27.6879 16.513L26.9404 18.7555M21.9612 28.9098L20.8338 31.1646C20.7587 31.316 20.6344 31.4375 20.4813 31.5092C20.3282 31.5809 20.1553 31.5985 19.9909 31.5592C17.6904 30.9968 15.7072 30.0162 14.2627 28.7607C14.1524 28.6658 14.0719 28.5412 14.0308 28.4016C13.9897 28.2621 13.9897 28.1136 14.031 27.9741L17.216 17.3573C17.2482 17.2502 17.3038 17.1517 17.3788 17.0688C17.4539 16.986 17.5464 16.9209 17.6498 16.8783C18.5496 16.5099 19.4802 16.2218 20.4308 16.0174C20.6119 15.9777 20.8013 16.0064 20.9626 16.0979C21.1239 16.1893 21.2456 16.3372 21.3045 16.513L22.052 18.7555" stroke="#F6821F" stroke-width="2" stroke-linecap="round" stroke-linejoin="round"/>
<rect x="19" y="19" width="11" height="10" fill="#F6821F"/>
<path d="M21.625 26.25C22.2463 26.25 22.75 25.7463 22.75 25.125C22.75 24.5037 22.2463 24 21.625 24C21.0037 24 20.5 24.5037 20.5 25.125C20.5 25.7463 21.0037 26.25 21.625 26.25Z" fill="#EAECEF"/>
<path d="M27.625 26.25C28.2463 26.25 28.75 25.7463 28.75 25.125C28.75 24.5037 28.2463 24 27.625 24C27.0037 24 26.5 24.5037 26.5 25.125C26.5 25.7463 27.0037 26.25 27.625 26.25Z" fill="#EAECEF"/>
<path d="M29.5495 29C27.9236 29.5089 26.2284 29.7619 24.5248 29.75C22.8211 29.7619 21.1259 29.5089 19.5 29" stroke="#EAECEF" stroke-linecap="round" stroke-linejoin="round"/>
<path d="M19.5 18.7504C21.126 18.2415 22.8211 17.9885 24.5248 18.0004C26.2285 17.9885 27.9237 18.2415 29.5496 18.7504" stroke="#EAECEF" stroke-linecap="round" stroke-linejoin="round"/>
</svg>
