<svg width="48" height="48" viewBox="0 0 48 48" fill="none" xmlns="http://www.w3.org/2000/svg">
<circle cx="24" cy="24" r="24" fill="#F6821F" fill-opacity="0.16"/>
<circle cx="24.0001" cy="24.0001" r="21.4737" fill="#EAECEF"/>
<g clip-path="url(#clip0_2068_10741)">
<path d="M19.988 29.2547C19.9014 29.2547 19.8171 29.2547 19.7305 29.2547C19.6813 29.2477 19.6298 29.2431 19.5807 29.2361C19.2951 29.1989 19.0049 29.1827 18.724 29.1223C15.8541 28.5045 14.0307 25.7105 14.6088 22.8259C15.1894 19.9204 18.0545 18.0461 20.9688 18.6592C23.7941 19.2538 25.6574 22.0339 25.119 24.8558C24.6906 27.0993 22.9819 28.7832 20.73 29.1711C20.4866 29.2152 20.2361 29.2291 19.988 29.2547Z" fill="#F6821F"/>
<path d="M25.7227 23.8433C25.7367 22.7331 25.9076 21.6113 26.3991 20.5546C26.6145 20.0901 26.886 19.6627 27.2793 19.3236C28.0096 18.6896 28.8617 18.7058 29.5709 19.3631C30.0133 19.7742 30.3059 20.2828 30.526 20.8333C30.9614 21.9179 31.1088 23.0513 31.0714 24.2126C31.0433 25.1393 30.8888 26.0451 30.5447 26.9114C30.327 27.4595 30.0461 27.9705 29.6154 28.3862C29.2924 28.6974 28.9202 28.9134 28.459 28.932C27.9862 28.9506 27.5953 28.7555 27.2559 28.4489C26.7901 28.0285 26.4904 27.4943 26.2634 26.9207C25.8725 25.9452 25.7297 24.9256 25.7227 23.8433Z" fill="#F6821F"/>
<path d="M33.4988 23.8944C33.473 24.9465 33.4215 25.9916 33.2109 27.0251C33.1477 27.334 33.047 27.636 32.951 27.9402C32.9206 28.0378 32.8644 28.1307 32.8059 28.2166C32.635 28.4721 32.4361 28.4744 32.2652 28.2189C32.1996 28.1191 32.1435 28.0099 32.1013 27.9007C31.9211 27.4478 31.8298 26.9717 31.7643 26.4933C31.5231 24.7072 31.5208 22.9212 31.7923 21.1375C31.8555 20.7264 31.9819 20.3246 32.0896 19.9228C32.1224 19.8067 32.1856 19.6929 32.2511 19.5907C32.429 19.3143 32.6397 19.3096 32.8082 19.5884C32.9066 19.7533 32.9838 19.9344 33.0447 20.1156C33.2483 20.7403 33.3373 21.3906 33.3911 22.0433C33.4426 22.6564 33.466 23.2766 33.4988 23.8944Z" fill="#F6821F"/>
</g>
<defs>
<clipPath id="clip0_2068_10741">
<rect width="18.9979" height="10.7116" fill="white" transform="translate(14.501 18.543)"/>
</clipPath>
</defs>
</svg>
