<svg width="48" height="48" viewBox="0 0 48 48" fill="none" xmlns="http://www.w3.org/2000/svg">
<circle cx="24" cy="24" r="24" fill="#F6821F" fill-opacity="0.16"/>
<circle cx="24.001" cy="24.0001" r="21.4737" fill="#EAECEF"/>
<g clip-path="url(#clip0_2068_10736)">
<path fill-rule="evenodd" clip-rule="evenodd" d="M34.1051 23.9998C34.1051 29.5808 29.5808 34.1051 23.9998 34.1051C18.4188 34.1051 13.8945 29.5808 13.8945 23.9998C13.8945 18.4188 18.4188 13.8945 23.9998 13.8945C29.5808 13.8945 34.1051 18.4188 34.1051 23.9998ZM24.3618 21.3548C23.3789 21.7636 21.4145 22.6097 18.4687 23.8932C17.9903 24.0835 17.7397 24.2696 17.7169 24.4515C17.6783 24.7591 18.0634 24.8802 18.5879 25.0451C18.6592 25.0675 18.7331 25.0907 18.8089 25.1154C19.3249 25.2831 20.0189 25.4793 20.3797 25.4871C20.707 25.4942 21.0723 25.3592 21.4756 25.0823C24.228 23.2243 25.6489 22.2852 25.7381 22.265C25.801 22.2507 25.8882 22.2327 25.9473 22.2852C26.0064 22.3378 26.0006 22.4372 25.9943 22.4639C25.9562 22.6265 24.4444 24.032 23.6621 24.7593C23.4182 24.986 23.2452 25.1469 23.2099 25.1836C23.1306 25.2659 23.0499 25.3437 22.9723 25.4185C22.493 25.8806 22.1335 26.2271 22.9922 26.793C23.4049 27.0649 23.7351 27.2898 24.0645 27.5141C24.4242 27.7591 24.7831 28.0035 25.2474 28.3078C25.3657 28.3854 25.4786 28.4659 25.5887 28.5443C26.0073 28.8428 26.3835 29.111 26.8482 29.0682C27.1182 29.0434 27.3971 28.7895 27.5388 28.0322C27.8736 26.2425 28.5316 22.3649 28.6837 20.767C28.697 20.627 28.6802 20.4479 28.6668 20.3692C28.6533 20.2906 28.6252 20.1785 28.5229 20.0956C28.4019 19.9973 28.215 19.9766 28.1314 19.9781C27.7513 19.9848 27.1682 20.1875 24.3618 21.3548Z" fill="#F6821F"/>
</g>
<defs>
<clipPath id="clip0_2068_10736">
<rect width="20.2105" height="20.2105" fill="white" transform="translate(13.8945 13.8945)"/>
</clipPath>
</defs>
</svg>
