<svg width="48" height="48" viewBox="0 0 48 48" fill="none" xmlns="http://www.w3.org/2000/svg">
<circle cx="24" cy="24" r="24" fill="#F6821F" fill-opacity="0.16"/>
<circle cx="24.001" cy="24.0001" r="21.4737" fill="#EAECEF"/>
<g clip-path="url(#clip0_2068_10731)">
<path d="M20.2526 32.2104C27.8773 32.2104 32.0489 25.8918 32.0489 20.414C32.0489 20.2364 32.0449 20.0548 32.037 19.8772C32.8485 19.2903 33.5488 18.5634 34.1051 17.7306C33.3493 18.0669 32.5469 18.2865 31.7252 18.3819C32.5903 17.8633 33.2381 17.0487 33.5485 16.0889C32.7346 16.5713 31.8445 16.9115 30.9164 17.0951C30.291 16.4306 29.4642 15.9907 28.5637 15.8433C27.6633 15.6958 26.7393 15.8491 25.9347 16.2795C25.1301 16.7099 24.4897 17.3933 24.1125 18.2241C23.7353 19.0549 23.6423 19.9869 23.8478 20.8759C22.1998 20.7932 20.5875 20.3651 19.1156 19.6193C17.6436 18.8735 16.3448 17.8267 15.3033 16.5468C14.774 17.4594 14.6121 18.5393 14.8503 19.5671C15.0886 20.5948 15.7093 21.4933 16.5862 22.0798C15.9279 22.0589 15.284 21.8817 14.7077 21.5627V21.614C14.7071 22.5718 15.0382 23.5001 15.6447 24.2413C16.2512 24.9825 17.0956 25.4908 18.0345 25.6798C17.4247 25.8467 16.7846 25.871 16.1639 25.7509C16.4288 26.5745 16.9443 27.2949 17.6383 27.8115C18.3324 28.3281 19.1704 28.6151 20.0355 28.6325C18.5669 29.786 16.7528 30.4117 14.8853 30.4088C14.5541 30.4083 14.2233 30.388 13.8945 30.348C15.7917 31.5651 17.9986 32.2115 20.2526 32.2104Z" fill="#F6821F"/>
</g>
<defs>
<clipPath id="clip0_2068_10731">
<rect width="20.2105" height="20.2105" fill="white" transform="translate(13.8945 13.8945)"/>
</clipPath>
</defs>
</svg>
