<svg width="75" height="28" viewBox="0 0 75 28" fill="none" xmlns="http://www.w3.org/2000/svg">
<path fill-rule="evenodd" clip-rule="evenodd" d="M2.55957 4.94118C2.55957 2.21224 4.77476 0 7.50735 0H18.2275V3.29412C18.2275 4.55965 17.7512 5.71405 16.9677 6.58824C17.7512 7.46241 18.2275 8.61685 18.2275 9.88238V13.1765H2.55957V4.94118ZM14.929 3.29412H7.50735C6.59648 3.29412 5.85808 4.03153 5.85808 4.94118V9.88238H14.929C14.929 8.97322 14.1915 8.23619 13.2814 8.23528H7.50735V4.94118H13.2798C14.1906 4.94118 14.929 4.20377 14.929 3.29412Z" fill="white"/>
<path fill-rule="evenodd" clip-rule="evenodd" d="M24.8248 0C22.0922 0 19.877 2.21224 19.877 4.94118V13.1765H30.5972C33.3297 13.1765 35.5449 10.9642 35.5449 8.23528V0H24.8248ZM32.2464 3.29412H24.8248C23.9139 3.29412 23.1755 4.03153 23.1755 4.94118V9.88238H30.5972C31.508 9.88238 32.2464 9.14493 32.2464 8.23528V3.29412Z" fill="white"/>
<path d="M42.1402 0C39.4076 0 37.1924 2.21224 37.1924 4.94118V13.1765H52.8604V9.88238H40.4909V4.94118C40.4909 4.03153 41.2293 3.29412 42.1402 3.29412H52.8604V0H42.1402Z" fill="white"/>
<path fill-rule="evenodd" clip-rule="evenodd" d="M53.6982 13.1765L57.3463 3.2402C58.0609 1.29393 59.9159 0 61.9916 0H63.9811C66.0568 0 67.9118 1.29388 68.6264 3.24011L72.2748 13.1765H68.7615L67.552 9.88238H58.4508V9.80104L57.2115 13.1765H53.6982ZM66.3425 6.58827L65.5295 4.37416C65.2914 3.72542 64.673 3.29412 63.9811 3.29412H61.9916C61.2997 3.29412 60.6814 3.72543 60.4432 4.37419L59.6303 6.58827H66.3425Z" fill="white"/>
<path fill-rule="evenodd" clip-rule="evenodd" d="M56.082 28L59.7301 18.0637C60.4447 16.1174 62.2997 14.8235 64.3755 14.8235H66.365C68.4406 14.8235 70.2958 16.1174 71.01 18.0636L74.6584 28H71.1453L69.9358 24.7059H60.8346V24.6245L59.5953 28H56.082ZM68.7263 21.4118L67.9134 19.1976C67.6751 18.549 67.0568 18.1176 66.365 18.1176H64.3755C63.6836 18.1176 63.0652 18.549 62.8271 19.1977L62.0141 21.4118H68.7263Z" fill="white"/>
<path d="M17.3174 28V14.8235H20.6158V19.7647H29.6868V14.8235H32.9853V28H29.6868V23.0588H20.6158V28H17.3174Z" fill="white"/>
<path fill-rule="evenodd" clip-rule="evenodd" d="M37.9323 14.8235V28H34.6338V14.8235H37.9323Z" fill="white"/>
<path fill-rule="evenodd" clip-rule="evenodd" d="M4.94778 14.8235C2.2152 14.8235 0 17.0357 0 19.7646V27.9999H15.668V24.7058H3.29852V19.7646C3.29852 18.855 4.03691 18.1175 4.94778 18.1175H15.668V14.8235H4.94778Z" fill="white"/>
<path d="M44.5298 14.8235C41.7972 14.8235 39.582 17.0358 39.582 19.7647V28H55.25V24.7059H42.8806V19.7647C42.8806 18.8551 43.6189 18.1176 44.5298 18.1176H55.25V14.8235H44.5298Z" fill="white"/>
</svg>
